<svg width="174" height="44" viewBox="0 0 174 44" fill="none" xmlns="http://www.w3.org/2000/svg">
<path d="M0 42.862L0.755259 42.4175C0.915025 42.8472 1.22003 43.1138 1.78648 43.1138C2.30935 43.1138 2.49816 42.8916 2.49816 42.6398C2.49816 42.299 2.19316 42.1657 1.53957 41.9731C0.842404 41.7657 0.188815 41.4694 0.188815 40.6101C0.188815 39.7509 0.885977 39.2472 1.65576 39.2472C2.38197 39.2472 2.94841 39.6324 3.25342 40.2694L2.51269 40.699C2.35292 40.3583 2.10601 40.1213 1.65576 40.1213C1.29265 40.1213 1.07479 40.3138 1.07479 40.5805C1.07479 40.862 1.24908 41.0101 1.9172 41.2175C2.62888 41.4398 3.36962 41.6916 3.36962 42.6101C3.36962 43.4546 2.7015 43.9879 1.75743 43.9879C0.842404 43.9879 0.246912 43.5435 0 42.862Z" fill="#49A2FB"/>
<path d="M9.36811 41.6175C9.36811 40.7435 8.74357 40.1213 7.93022 40.1213C7.11686 40.1213 6.49232 40.7435 6.49232 41.6175C6.49232 42.4916 7.11686 43.099 7.93022 43.099C8.74357 43.099 9.36811 42.4916 9.36811 41.6175ZM5.62087 41.6175C5.62087 40.2842 6.65209 39.2472 7.93022 39.2472C9.20835 39.2472 10.2541 40.2842 10.2541 41.6175C10.2541 42.9509 9.22287 43.9879 7.93022 43.9879C6.63756 43.9879 5.62087 42.9509 5.62087 41.6175Z" fill="#49A2FB"/>
<path d="M13.6673 40.1953V41.2768H15.3957V42.1361H13.6673V43.899H12.7813V39.3509H15.4392V40.1953H13.6673Z" fill="#49A2FB"/>
<path d="M20.9439 40.1953H19.7384V43.899H18.8669V40.1953H17.6614V39.3509H20.9439V40.1953Z" fill="#49A2FB"/>
<path d="M23.0354 39.3509H23.9504L24.8073 42.7138L25.7369 39.3509H26.4922L27.4217 42.7138L28.2786 39.3509H29.2082L27.9591 43.899H26.9569L26.1145 40.8916L25.2866 43.899H24.2845L23.0354 39.3509Z" fill="#49A2FB"/>
<path d="M33.6962 42.2398L33.0861 40.3879L32.4761 42.2398H33.6962ZM33.9721 43.0694H32.2002L31.9387 43.8842H30.9947L32.5342 39.3509H33.6235L35.1922 43.899H34.2336L33.9721 43.0694Z" fill="#49A2FB"/>
<path d="M38.4165 41.5287H39.317C39.6511 41.5287 39.927 41.2324 39.927 40.8472C39.927 40.4768 39.6511 40.1805 39.317 40.1805H38.4165V41.5287ZM39.0846 42.3138H38.4165V43.899H37.5306V39.3509H39.317C40.1449 39.3509 40.7985 40.0324 40.7985 40.862C40.7985 41.4398 40.4499 41.9435 39.9416 42.1953L40.9292 43.9138H39.9851L39.0846 42.3138Z" fill="#49A2FB"/>
<path d="M46.1289 43.0398V43.899H43.3693V39.3509H46.0853V40.1953H44.2407V41.1731H45.9255V42.0175H44.2407V43.0398H46.1289Z" fill="#49A2FB"/>
<path d="M54.8712 43.0398V43.899H52.1116V39.3509H54.8422V40.1953H52.9976V41.1731H54.6824V42.0176H52.9976V43.0398H54.8712Z" fill="#0067DC"/>
<path d="M60.8697 39.3509V43.899H60.2016L58.2844 41.1138V43.899H57.413V39.3509H58.0811L59.9838 42.1213V39.3509H60.8697Z" fill="#0067DC"/>
<path d="M67.9866 41.7953C67.9866 43.1138 67.0716 43.9731 65.7935 43.9731C64.3991 43.9731 63.4115 42.9064 63.4115 41.6176C63.4115 40.299 64.4137 39.2472 65.7499 39.2472C66.5923 39.2472 67.3185 39.6768 67.6961 40.299L66.9409 40.7435C66.7375 40.3731 66.2873 40.1064 65.7499 40.1064C64.9075 40.1064 64.2975 40.7435 64.2975 41.6027C64.2975 42.4472 64.8929 43.0842 65.8225 43.0842C66.5197 43.0842 66.9699 42.7435 67.1297 42.225H65.7789V41.425H68.0157V41.7953H67.9866Z" fill="#0067DC"/>
<path d="M70.5138 43.899H71.3998V39.3509H70.5138V43.899Z" fill="#0067DC"/>
<path d="M77.6016 39.3509V43.899H76.9335L75.0163 41.1138V43.899H74.1303V39.3509H74.7985L76.7157 42.1213V39.3509H77.6016Z" fill="#0067DC"/>
<path d="M83.0918 43.0398V43.899H80.3322V39.3509H83.0627V40.1953H81.2182V41.1731H82.903V42.0176H81.2182V43.0398H83.0918Z" fill="#0067DC"/>
<path d="M88.3786 43.0398V43.899H85.619V39.3509H88.3495V40.1953H86.505V41.1731H88.1898V42.0176H86.505V43.0398H88.3786Z" fill="#0067DC"/>
<path d="M91.7918 41.5287H92.6923C93.0263 41.5287 93.3023 41.2324 93.3023 40.8472C93.3023 40.4768 93.0263 40.1805 92.6923 40.1805H91.7918V41.5287ZM92.4599 42.3138H91.7918V43.899H90.9058V39.3509H92.6923C93.5202 39.3509 94.1737 40.0324 94.1737 40.862C94.1737 41.4398 93.8252 41.9435 93.3168 42.1953L94.3045 43.9139H93.3604L92.4599 42.3138Z" fill="#0067DC"/>
<path d="M96.73 43.899H97.616V39.3509H96.73V43.899Z" fill="#0067DC"/>
<path d="M103.818 39.3509V43.899H103.15L101.233 41.1138V43.899H100.361V39.3509H101.029L102.932 42.1213V39.3509H103.818Z" fill="#0067DC"/>
<path d="M110.935 41.7953C110.935 43.1138 110.02 43.9731 108.742 43.9731C107.347 43.9731 106.36 42.9064 106.36 41.6176C106.36 40.299 107.362 39.2472 108.698 39.2472C109.54 39.2472 110.267 39.6768 110.644 40.299L109.889 40.7435C109.686 40.3731 109.235 40.1064 108.698 40.1064C107.856 40.1064 107.246 40.7435 107.246 41.6027C107.246 42.4472 107.841 43.0842 108.771 43.0842C109.468 43.0842 109.918 42.7435 110.078 42.225H108.727V41.425H110.964V41.7953H110.935Z" fill="#0067DC"/>
<path d="M119.467 43.0398V43.899H116.897V39.3509H117.768V43.0398H119.467Z" fill="#0044C6"/>
<path d="M124.333 42.2398L123.723 40.3731L123.113 42.225H124.333V42.2398ZM124.609 43.0694H122.837L122.576 43.8842H121.617L123.171 39.3509H124.26L125.829 43.899H124.87L124.609 43.0694Z" fill="#0044C6"/>
<path d="M130.578 42.5213C130.578 42.2101 130.36 41.9879 130.055 41.9879H129.039V43.0546H130.055C130.36 43.0546 130.578 42.8324 130.578 42.5213ZM129.053 40.1805V41.1879H129.939C130.215 41.1879 130.419 40.9805 130.419 40.6842C130.419 40.3879 130.215 40.1805 129.939 40.1805H129.053ZM131.45 42.5805C131.45 43.3657 130.825 43.899 130.055 43.899H128.167V39.3509H129.925C130.68 39.3509 131.276 39.8694 131.276 40.625C131.276 41.0101 131.116 41.3213 130.854 41.5287C131.232 41.7361 131.45 42.1064 131.45 42.5805Z" fill="#0044C6"/>
<path d="M137.492 41.6175C137.492 40.7435 136.867 40.1213 136.054 40.1213C135.241 40.1213 134.616 40.7435 134.616 41.6175C134.616 42.4916 135.241 43.099 136.054 43.099C136.853 43.1138 137.492 42.4916 137.492 41.6175ZM133.73 41.6175C133.73 40.2842 134.761 39.2472 136.039 39.2472C137.318 39.2472 138.363 40.2842 138.363 41.6175C138.363 42.9509 137.332 43.9879 136.039 43.9879C134.747 43.9879 133.73 42.9509 133.73 41.6175Z" fill="#0044C6"/>
<path d="M141.777 41.5287H142.677C143.011 41.5287 143.287 41.2324 143.287 40.8472C143.287 40.4768 143.011 40.1805 142.677 40.1805H141.777V41.5287ZM142.445 42.3138H141.777V43.899H140.891V39.3509H142.677C143.505 39.3509 144.158 40.0324 144.158 40.862C144.158 41.4398 143.81 41.9435 143.302 42.1953L144.289 43.9138H143.345L142.445 42.3138Z" fill="#0044C6"/>
<path d="M149.053 42.2398L148.443 40.3879L147.833 42.2398H149.053ZM149.315 43.0694H147.543L147.281 43.8842H146.337L147.891 39.3361H148.981L150.549 43.8842H149.591L149.315 43.0694Z" fill="#0044C6"/>
<path d="M155.516 40.1953H154.311V43.899H153.425V40.1953H152.234V39.3509H155.516V40.1953Z" fill="#0044C6"/>
<path d="M161.21 41.6175C161.21 40.7435 160.585 40.1213 159.772 40.1213C158.959 40.1213 158.334 40.7435 158.334 41.6175C158.334 42.4916 158.959 43.099 159.772 43.099C160.585 43.099 161.21 42.4916 161.21 41.6175ZM157.463 41.6175C157.463 40.2842 158.494 39.2472 159.772 39.2472C161.065 39.2472 162.096 40.2842 162.096 41.6175C162.096 42.9509 161.065 43.9879 159.772 43.9879C158.479 43.9879 157.463 42.9509 157.463 41.6175Z" fill="#0044C6"/>
<path d="M165.495 41.5287H166.395C166.729 41.5287 167.005 41.2324 167.005 40.8472C167.005 40.4768 166.729 40.1805 166.395 40.1805H165.495V41.5287ZM166.163 42.3138H165.495V43.899H164.609V39.3509H166.395C167.223 39.3509 167.877 40.0324 167.877 40.862C167.877 41.4398 167.528 41.9435 167.02 42.1953L168.007 43.9138H167.063L166.163 42.3138Z" fill="#0044C6"/>
<path d="M172.321 42.1213V43.899H171.449V42.1213L169.924 39.3509H170.912L171.885 41.2472L172.844 39.3509H173.846L172.321 42.1213Z" fill="#0044C6"/>
<path d="M154.973 0C151.008 0 147.639 2.56296 146.346 6.16296L139.432 25.5111H120.289C119.781 25.5111 119.374 25.0963 119.374 24.5778C119.374 24.563 119.374 16.3704 119.374 0.0148148H110.195V25.5111C110.195 30.6815 114.306 34.8741 119.374 34.8741L145.838 34.9037L149.207 25.5111H160.739L162.991 31.7926C163.673 33.6889 165.416 34.8889 167.29 34.8889H173.855L163.644 6.28148C162.395 2.62222 158.996 0 154.973 0ZM154.567 9.36296L157.835 18.4889H151.313L154.567 9.36296Z" fill="url(#paint0_linear)"/>
<path d="M98.2708 0V22.1037C98.2708 22.6222 97.8641 23.037 97.3557 23.037C97.0798 23.037 96.8184 22.9037 96.6586 22.7111L86.4481 4.66667C84.8504 1.8963 81.902 0.0296296 78.5324 0.0296296C73.4634 0.0296296 69.3531 4.22222 69.3531 9.39259V25.5407H45.2429C44.7345 25.5407 44.3279 25.1259 44.3279 24.6074C44.3279 24.5926 44.3279 23.3778 44.3279 20.9778H66.4482V13.9556H44.3279V10.3704C44.3279 9.80741 44.7345 9.39259 45.2429 9.39259H66.4482V0.0296296H44.3279H35.1486V25.5259C35.1486 30.6963 39.2589 34.8889 44.3279 34.8889H69.3531H78.5324V12.8593C78.5324 12.3407 78.9391 11.9259 79.4474 11.9259C79.7815 11.9259 80.0719 12.1037 80.2317 12.3704C80.2608 12.4296 80.2753 12.4593 80.2898 12.4741L90.326 30.1926C91.9237 32.9926 94.8866 34.8741 98.2853 34.8741C103.354 34.8741 107.465 30.6815 107.465 25.5111V0H98.2708Z" fill="url(#paint1_linear)"/>
<path d="M9.22286 0.0295105C4.15391 0.0295105 0.0435638 4.2221 0.0435638 9.39247C0.0435638 13.2591 2.33839 16.5777 5.62086 17.9999L18.9541 23.7777C19.2446 23.9406 19.4334 24.2517 19.4334 24.5925C19.4334 25.0814 19.0557 25.4814 18.591 25.5258H0.0435638V34.8888H23.4421V34.8739C28.3222 34.6665 32.2292 30.5628 32.2292 25.5258C32.2292 21.4369 29.6584 17.9702 26.0855 16.6962L13.3913 11.1999C13.0427 11.0665 12.7958 10.7258 12.7958 10.3258C12.7958 9.83692 13.1734 9.43692 13.6382 9.39247H35.134H37.8936C39.8689 9.39247 41.5537 8.1184 42.2073 6.3258L44.4586 0.0295105H9.22286Z" fill="url(#paint2_linear)"/>
<defs>
<linearGradient id="paint0_linear" x1="110.195" y1="34.9037" x2="173.855" y2="34.9037" gradientUnits="userSpaceOnUse">
<stop stop-color="#0044C6"/>
<stop offset="1" stop-color="#005CF1"/>
</linearGradient>
<linearGradient id="paint1_linear" x1="35.1486" y1="34.8889" x2="107.465" y2="34.8889" gradientUnits="userSpaceOnUse">
<stop stop-color="#0067DC"/>
<stop offset="1" stop-color="#1D7DE8"/>
</linearGradient>
<linearGradient id="paint2_linear" x1="0.0435638" y1="34.8888" x2="44.4586" y2="34.8888" gradientUnits="userSpaceOnUse">
<stop stop-color="#49A2FB"/>
<stop offset="1" stop-color="#5BBAFB"/>
</linearGradient>
</defs>
</svg>
