<svg width="81" height="81" viewBox="0 0 81 81" fill="none" xmlns="http://www.w3.org/2000/svg">
<path d="M52.142 53.4474L30.3442 53.4474C30.0575 53.4474 29.7825 53.3335 29.5798 53.1308C29.377 52.928 29.2631 52.6531 29.2631 52.3663L29.2631 18.5231C29.2631 18.4842 29.2631 18.4453 29.2631 18.4063C29.9258 12.2961 33.6426 6.98365 40.6242 2.16635C40.8046 2.04199 41.0186 1.9754 41.2377 1.9754C41.4569 1.9754 41.6708 2.04199 41.8512 2.16635C48.8426 6.98257 52.5539 12.2961 53.2112 18.4096C53.2156 18.4476 53.2177 18.4859 53.2177 18.5242L53.2177 52.3663C53.2177 52.6521 53.1046 52.9263 52.903 53.1289C52.7014 53.3315 52.4278 53.446 52.142 53.4474V53.4474ZM31.4253 51.2853L51.061 51.2853L51.061 18.5815C50.4739 13.2572 47.3475 8.72743 41.248 4.37608C35.1518 8.72959 32.0253 13.2593 31.4296 18.5826L31.4253 51.2853Z" fill="white"/>
<path d="M24.7745 55.681C24.6253 55.6811 24.4776 55.6503 24.3409 55.5906C24.2041 55.5309 24.0812 55.4435 23.9799 55.3339L22.5183 53.7469C21.0188 52.1411 20.014 50.1371 19.6242 47.9749C19.2344 45.8127 19.4761 43.5839 20.3204 41.5556L20.3756 41.4258C22.2256 37.1216 25.6647 33.6968 29.9766 31.8648C30.14 31.8057 30.3151 31.7869 30.4872 31.8099C30.6593 31.8328 30.8234 31.8969 30.9655 31.9967C31.1076 32.0965 31.2236 32.2291 31.3036 32.3832C31.3837 32.5373 31.4254 32.7084 31.4253 32.8821L31.4253 48.0918C31.4252 48.2752 31.3784 48.4557 31.2893 48.616C31.2002 48.7764 31.0718 48.9115 30.9161 49.0085C28.678 50.4934 26.8979 52.5726 25.7756 55.0129C25.7057 55.1803 25.5948 55.3275 25.4531 55.4409C25.3114 55.5543 25.1435 55.6301 24.9648 55.6615C24.902 55.6734 24.8383 55.6799 24.7745 55.681V55.681ZM21.315 41.9804L22.3085 42.4042C21.6272 44.0495 21.4346 45.8563 21.7538 47.6082C22.0731 49.3601 22.8906 50.9829 24.1085 52.282L24.5193 52.7285C25.7036 50.6651 27.3222 48.8838 29.2631 47.508V34.6129C26.2008 36.3686 23.7807 39.0583 22.3572 42.2885L21.315 41.9804Z" fill="white"/>
<path d="M57.7216 55.681C57.6578 55.681 57.5941 55.6756 57.5313 55.6647C57.3526 55.6334 57.1846 55.5575 57.0429 55.4441C56.9012 55.3308 56.7903 55.1836 56.7205 55.0161C55.5982 52.5759 53.8181 50.4967 51.5799 49.0118C51.4242 48.9147 51.2958 48.7797 51.2067 48.6193C51.1177 48.4589 51.0709 48.2785 51.0707 48.095V32.8821C51.0706 32.7084 51.1124 32.5373 51.1924 32.3832C51.2724 32.2291 51.3884 32.0965 51.5305 31.9967C51.6726 31.8969 51.8367 31.8328 52.0088 31.8099C52.181 31.7869 52.3561 31.8057 52.5194 31.8648C56.8314 33.6968 60.2704 37.1216 62.1205 41.4258L62.1756 41.5556C63.0199 43.5839 63.2617 45.8127 62.8719 47.9749C62.4821 50.1371 61.4773 52.1411 59.9778 53.7469L58.5161 55.3339C58.4148 55.4435 58.2919 55.5309 58.1552 55.5906C58.0184 55.6503 57.8708 55.6811 57.7216 55.681V55.681ZM53.2329 47.508C55.1738 48.8838 56.7925 50.6651 57.9767 52.7285L58.3875 52.282C59.6048 50.9832 60.4219 49.361 60.7412 47.6097C61.0604 45.8585 60.8682 44.0523 60.1875 42.4075L61.1291 41.8669L60.1389 42.2993C58.7153 39.0692 56.2953 36.3794 53.2329 34.6237V47.508Z" fill="white"/>
<path d="M41.2481 23.7511C40.1219 23.7514 39.0209 23.4176 38.0844 22.7921C37.1478 22.1665 36.4179 21.2773 35.9867 20.2369C35.5556 19.1964 35.4427 18.0515 35.6623 16.9469C35.8818 15.8423 36.4241 14.8276 37.2203 14.0312C38.0166 13.2347 39.0312 12.6923 40.1358 12.4725C41.2403 12.2527 42.3853 12.3654 43.4258 12.7964C44.4663 13.2273 45.3557 13.9571 45.9814 14.8935C46.6071 15.8299 46.9411 16.9309 46.9411 18.0571C46.9394 19.5665 46.3391 21.0137 45.2718 22.0811C44.2046 23.1486 42.7576 23.7491 41.2481 23.7511V23.7511ZM41.2481 14.5263C40.5495 14.5261 39.8665 14.7331 39.2855 15.1211C38.7045 15.5091 38.2517 16.0607 37.9842 16.7061C37.7167 17.3515 37.6467 18.0617 37.783 18.7469C37.9192 19.4322 38.2556 20.0616 38.7496 20.5556C39.2436 21.0496 39.873 21.386 40.5583 21.5223C41.2435 21.6585 41.9537 21.5885 42.5991 21.321C43.2445 21.0536 43.7961 20.6007 44.1841 20.0197C44.5721 19.4387 44.7791 18.7557 44.7789 18.0571C44.7778 17.121 44.4054 16.2236 43.7435 15.5617C43.0816 14.8998 42.1842 14.5274 41.2481 14.5263V14.5263Z" fill="white"/>
<path d="M51.0232 57.9166H31.4632C31.1764 57.9166 30.9015 57.8027 30.6987 57.5999C30.496 57.3972 30.3821 57.1222 30.3821 56.8355V52.3663C30.3821 52.0796 30.496 51.8046 30.6987 51.6019C30.9015 51.3991 31.1764 51.2852 31.4632 51.2852H51.0232C51.3099 51.2852 51.5849 51.3991 51.7876 51.6019C51.9903 51.8046 52.1042 52.0796 52.1042 52.3663V56.8355C52.1042 57.1222 51.9903 57.3972 51.7876 57.5999C51.5849 57.8027 51.3099 57.9166 51.0232 57.9166ZM32.5442 55.7544H49.9421V53.4474H32.5442V55.7544Z" fill="white"/>
<path d="M41.3205 77.6507C40.6043 77.6175 39.9142 77.3712 39.3388 76.9435C38.7633 76.5157 38.3286 75.9259 38.0903 75.2497C37.135 73.1224 35.9066 71.1287 34.4362 69.3188C32.0113 66.1383 30.0957 63.6259 32.6362 56.4745C32.7108 56.264 32.8488 56.0818 33.0311 55.9529C33.2135 55.8239 33.4313 55.7546 33.6546 55.7545H48.8157C49.0392 55.7544 49.2572 55.8236 49.4398 55.9525C49.6224 56.0815 49.7605 56.2638 49.8351 56.4745C50.5702 58.3498 50.9849 60.3353 51.0622 62.348C51.0622 65.3988 49.6957 67.2259 48.1141 69.3416C46.6737 71.1507 45.4705 73.1365 44.5335 75.2507C44.2991 75.9248 43.8686 76.5134 43.2972 76.941C42.7259 77.3686 42.0398 77.6158 41.327 77.6507H41.3205ZM34.4276 57.9167C32.6319 63.3859 33.9097 65.0626 36.1573 68.0086C37.7328 69.9569 39.0496 72.1008 40.0751 74.387C40.3746 75.0767 40.8416 75.4886 41.3227 75.4886C41.7984 75.4886 42.2568 75.0788 42.5508 74.3967C43.5557 72.1265 44.8442 69.9928 46.3854 68.0464C47.8989 66.0194 48.9032 64.6799 48.9032 62.348C48.8485 60.8351 48.5593 59.3398 48.0459 57.9156L34.4276 57.9167Z" fill="white"/>
<path d="M41.2826 67.4248C40.8143 67.4062 40.3618 67.2497 39.9822 66.9748C39.6025 66.7 39.3125 66.3191 39.1486 65.8799C38.6781 64.8333 38.0738 63.8521 37.3507 62.961C36.1313 61.3556 35.0805 59.9697 36.1518 56.5113C36.2209 56.2916 36.3583 56.0998 36.544 55.9637C36.7297 55.8275 36.954 55.7543 37.1843 55.7545H45.2924C45.5224 55.7545 45.7465 55.8279 45.932 55.964C46.1175 56.1001 46.2547 56.2918 46.3237 56.5113C46.6043 57.3397 46.7588 58.2056 46.7821 59.0799C46.7283 60.5282 46.1568 61.9091 45.1713 62.9718C44.4636 63.8624 43.8719 64.8392 43.4102 65.8789C43.2482 66.3172 42.9601 66.6978 42.5823 66.9729C42.2046 67.248 41.7539 67.4052 41.287 67.4248H41.2826ZM38.0048 57.9167C37.5918 59.7134 38.0956 60.3761 39.0675 61.6551C39.8957 62.6826 40.5879 63.8126 41.127 65.0172C41.1608 65.1135 41.2203 65.1987 41.2989 65.2637C41.2826 65.2464 41.354 65.1794 41.4199 65.0248C41.9484 63.8264 42.6274 62.7002 43.4405 61.6734C44.1333 60.9789 44.5521 60.0575 44.6199 59.0788C44.6132 58.6855 44.5621 58.2942 44.4675 57.9124L38.0048 57.9167Z" fill="white"/>
<path d="M41.2481 47.4301C40.9614 47.4301 40.6864 47.3162 40.4837 47.1134C40.281 46.9107 40.1671 46.6357 40.1671 46.349V40.0117C40.1671 39.725 40.281 39.45 40.4837 39.2472C40.6864 39.0445 40.9614 38.9306 41.2481 38.9306C41.5349 38.9306 41.8098 39.0445 42.0126 39.2472C42.2153 39.45 42.3292 39.725 42.3292 40.0117V46.349C42.3292 46.6357 42.2153 46.9107 42.0126 47.1134C41.8098 47.3162 41.5349 47.4301 41.2481 47.4301Z" fill="white"/>
<path d="M36.1668 47.4033C35.8801 47.4033 35.6051 47.2894 35.4023 47.0866C35.1996 46.8839 35.0857 46.6089 35.0857 46.3222V43.5352C35.0857 43.2485 35.1996 42.9735 35.4023 42.7707C35.6051 42.568 35.8801 42.4541 36.1668 42.4541C36.4535 42.4541 36.7285 42.568 36.9312 42.7707C37.134 42.9735 37.2479 43.2485 37.2479 43.5352V46.3222C37.2479 46.6089 37.134 46.8839 36.9312 47.0866C36.7285 47.2894 36.4535 47.4033 36.1668 47.4033Z" fill="white"/>
<path d="M46.3161 47.4033C46.0293 47.4033 45.7544 47.2894 45.5516 47.0866C45.3489 46.8839 45.235 46.6089 45.235 46.3222V43.5352C45.235 43.2485 45.3489 42.9735 45.5516 42.7707C45.7544 42.568 46.0293 42.4541 46.3161 42.4541C46.6028 42.4541 46.8778 42.568 47.0805 42.7707C47.2833 42.9735 47.3972 43.2485 47.3972 43.5352V46.3222C47.3972 46.6089 47.2833 46.8839 47.0805 47.0866C46.8778 47.2894 46.6028 47.4033 46.3161 47.4033Z" fill="white"/>
</svg>
